<?xml version="1.0" encoding="UTF-8"?>
<svg width="80px" height="60px" viewBox="0 0 80 60" version="1.1" xmlns="http://www.w3.org/2000/svg" xmlns:xlink="http://www.w3.org/1999/xlink">
    <!-- Generator: Sketch 51.3 (57544) - http://www.bohemiancoding.com/sketch -->
    <title>Group 14</title>
    <desc>Created with Sketch.</desc>
    <defs>
        <polygon id="path-1" points="0 60 80 60 80 0 0 0"></polygon>
    </defs>
    <g id="Page-1" stroke="none" stroke-width="1" fill="none" fill-rule="evenodd">
        <g id="Group-14">
            <path d="M16.3247,19.3735 L18.7637,19.3735 C19.4967,19.3735 20.0487,19.1815 20.4177,18.7955 C20.7877,18.4095 20.9727,17.8715 20.9727,17.1815 C20.9727,16.4915 20.7857,15.9495 20.4127,15.5565 C20.0387,15.1635 19.4897,14.9665 18.7637,14.9665 L16.3247,14.9665 L16.3247,19.3735 Z M18.4127,22.3405 L16.3247,22.3405 L16.3247,27.9995 L12.4677,27.9995 L12.4677,11.9995 L18.7637,11.9995 C20.6617,11.9995 22.1447,12.4205 23.2147,13.2625 C24.2837,14.1035 24.8197,15.2935 24.8197,16.8305 C24.8197,17.9425 24.5937,18.8645 24.1437,19.5965 C23.6927,20.3285 22.9877,20.9205 22.0277,21.3745 L25.3687,27.8345 L25.3687,27.9995 L21.2367,27.9995 L18.4127,22.3405 Z" id="Fill-1" fill="#FFFFFF"></path>
            <path d="M31.1602,22.1758 C31.1602,23.2748 31.3322,24.0808 31.6762,24.5928 C32.0202,25.1068 32.5302,25.3628 33.2042,25.3628 C34.5222,25.3628 35.1972,24.3478 35.2262,22.3188 L35.2262,21.9448 C35.2262,19.8128 34.5442,18.7468 33.1822,18.7468 C31.9442,18.7468 31.2732,19.6668 31.1712,21.5058 L31.1602,22.1758 Z M27.4562,21.9448 C27.4562,20.7588 27.6872,19.7018 28.1492,18.7748 C28.6102,17.8478 29.2732,17.1358 30.1382,16.6368 C31.0022,16.1388 32.0172,15.8898 33.1822,15.8898 C34.9622,15.8898 36.3652,16.4418 37.3902,17.5438 C38.4162,18.6468 38.9292,20.1468 38.9292,22.0438 L38.9292,22.1758 C38.9292,24.0298 38.4142,25.4998 37.3852,26.5878 C36.3562,27.6758 34.9622,28.2198 33.2042,28.2198 C31.5122,28.2198 30.1532,27.7128 29.1272,26.6978 C28.1012,25.6828 27.5482,24.3078 27.4682,22.5718 L27.4562,21.9448 Z" id="Fill-3" fill="#FFFFFF"></path>
            <mask id="mask-2" fill="white">
                <use xlink:href="#path-1"></use>
            </mask>
            <g id="Clip-6"></g>
            <polygon id="Fill-5" fill="#FFFFFF" mask="url(#mask-2)" points="41.698 28 45.413 28 45.413 11.121 41.698 11.121"></polygon>
            <path d="M53.9736,18.7471 C52.8886,18.7471 52.2446,19.4651 52.0386,20.9011 L55.7756,20.9011 L55.7756,20.6151 C55.7896,20.0221 55.6396,19.5621 55.3256,19.2361 C55.0096,18.9101 54.5596,18.7471 53.9736,18.7471 Z M58.1266,14.1921 L58.1266,14.3351 L55.2036,14.3411 L53.4566,12.8461 L51.7096,14.3411 L48.8526,14.3351 L48.8526,14.1491 L52.4016,11.1101 L54.5226,11.1101 L58.1266,14.1921 Z M54.3906,28.2201 C52.5666,28.2201 51.0906,27.6761 49.9616,26.5881 C48.8336,25.5001 48.2696,24.0841 48.2696,22.3411 L48.2696,22.0331 C48.2696,20.8171 48.4946,19.7441 48.9456,18.8131 C49.3966,17.8831 50.0536,17.1631 50.9176,16.6541 C51.7826,16.1441 52.8086,15.8901 53.9946,15.8901 C55.6656,15.8901 56.9846,16.4091 57.9516,17.4451 C58.9176,18.4821 59.4016,19.9271 59.4016,21.7801 L59.4016,23.2201 L52.0386,23.2201 C52.1706,23.8871 52.4596,24.4101 52.9076,24.7911 C53.3546,25.1721 53.9326,25.3631 54.6436,25.3631 C55.8156,25.3631 56.7316,24.9531 57.3906,24.1321 L59.0826,26.1321 C58.6216,26.7691 57.9676,27.2771 57.1216,27.6541 C56.2756,28.0311 55.3656,28.2201 54.3906,28.2201 Z" id="Fill-7" fill="#FFFFFF" mask="url(#mask-2)"></path>
            <polygon id="Fill-8" fill="#FFFFFF" mask="url(#mask-2)" points="15.8574 45.0332 22.5714 45.0332 22.5714 48.0002 12.0004 48.0002 12.0004 32.0002 15.8574 32.0002"></polygon>
            <path d="M28.2095,42.1758 C28.2095,43.2748 28.3815,44.0808 28.7255,44.5938 C29.0695,45.1068 29.5795,45.3628 30.2535,45.3628 C31.5715,45.3628 32.2465,44.3478 32.2755,42.3188 L32.2755,41.9458 C32.2755,39.8138 31.5935,38.7468 30.2315,38.7468 C28.9935,38.7468 28.3225,39.6668 28.2205,41.5058 L28.2095,42.1758 Z M24.5055,41.9458 C24.5055,40.7578 24.7365,39.7008 25.1985,38.7748 C25.6595,37.8478 26.3225,37.1358 27.1875,36.6378 C28.0515,36.1398 29.0665,35.8898 30.2315,35.8898 C32.0115,35.8898 33.4145,36.4418 34.4395,37.5438 C35.4655,38.6468 35.9785,40.1468 35.9785,42.0438 L35.9785,42.1758 C35.9785,44.0298 35.4635,45.4998 34.4345,46.5878 C33.4055,47.6758 32.0115,48.2198 30.2535,48.2198 C28.5615,48.2198 27.2025,47.7128 26.1765,46.6978 C25.1505,45.6838 24.5975,44.3078 24.5175,42.5718 L24.5055,41.9458 Z" id="Fill-9" fill="#FFFFFF" mask="url(#mask-2)"></path>
            <path d="M43.584,45.3623 C44.104,45.3623 44.506,45.2213 44.791,44.9393 C45.078,44.6573 45.217,44.2633 45.209,43.7583 L48.682,43.7583 C48.682,45.0623 48.215,46.1323 47.281,46.9663 C46.348,47.8013 45.143,48.2193 43.672,48.2193 C41.941,48.2193 40.579,47.6773 39.583,46.5933 C38.586,45.5083 38.088,44.0083 38.088,42.0883 L38.088,41.9333 C38.088,40.7323 38.31,39.6723 38.753,38.7533 C39.196,37.8333 39.836,37.1263 40.671,36.6323 C41.506,36.1373 42.494,35.8893 43.639,35.8893 C45.184,35.8893 46.41,36.3183 47.318,37.1753 C48.229,38.0333 48.682,39.1943 48.682,40.6593 L45.209,40.6593 C45.209,40.0443 45.059,39.5713 44.76,39.2423 C44.459,38.9123 44.055,38.7473 43.551,38.7473 C42.59,38.7473 42.029,39.3593 41.869,40.5823 C41.818,40.9703 41.791,41.5063 41.791,42.1863 C41.791,43.3813 41.936,44.2093 42.221,44.6703 C42.506,45.1323 42.961,45.3623 43.584,45.3623" id="Fill-10" fill="#FFFFFF" mask="url(#mask-2)"></path>
            <path d="M55.5723,45.582 C56.0333,45.582 56.4163,45.483 56.7203,45.286 C57.0243,45.088 57.2423,44.864 57.3743,44.615 L57.3743,42.714 L56.2973,42.714 C55.0083,42.714 54.3633,43.293 54.3633,44.45 C54.3633,44.788 54.4763,45.061 54.7043,45.27 C54.9303,45.478 55.2203,45.582 55.5723,45.582 Z M57.8903,48 C57.7593,47.758 57.6413,47.403 57.5393,46.934 C56.8573,47.791 55.9053,48.22 54.6813,48.22 C53.5603,48.22 52.6083,47.881 51.8243,47.203 C51.0413,46.525 50.6483,45.674 50.6483,44.648 C50.6483,43.359 51.1253,42.385 52.0773,41.726 C53.0293,41.066 54.4143,40.736 56.2313,40.736 L57.3743,40.736 L57.3743,40.106 C57.3743,39.01 56.9013,38.462 55.9563,38.462 C55.0773,38.462 54.6373,38.895 54.6373,39.765 L50.9343,39.765 C50.9343,38.616 51.4243,37.683 52.4013,36.966 C53.3803,36.249 54.6273,35.89 56.1433,35.89 C57.6603,35.89 58.8573,36.26 59.7363,37 C60.6163,37.74 61.0663,38.755 61.0883,40.044 L61.0883,45.308 C61.1023,46.399 61.2713,47.234 61.5933,47.813 L61.5933,48 L57.8903,48 Z" id="Fill-11" fill="#FFFFFF" mask="url(#mask-2)"></path>
            <polygon id="Fill-12" fill="#FFFFFF" mask="url(#mask-2)" points="64.275 48 67.99 48 67.99 31.121 64.275 31.121"></polygon>
            <path d="M0,60 L80,60 L80,0 L0,0 L0,60 Z M4,56 L76,56 L76,4 L4,4 L4,56 Z" id="Fill-13" fill="#FFFFFF" mask="url(#mask-2)"></path>
        </g>
    </g>
</svg>